<svg width="20" height="19" viewBox="0 0 20 19" fill="none" xmlns="http://www.w3.org/2000/svg">
<path d="M17.9705 18.385L14.6145 15.029C13.1666 15.6882 11.5913 16.0204 10.0005 16.002C8.36037 16.0224 6.7372 15.6684 5.25449 14.967C4.10517 14.4062 3.07313 13.6318 2.21349 12.685C1.30098 11.7069 0.583786 10.5633 0.100488 9.316L0.000488281 9.002L0.105488 8.686C0.828298 6.84229 2.04474 5.23316 3.62149 4.035L1.00049 1.414L2.41349 0.0019989L19.3825 16.971L17.9725 18.385H17.9705ZM5.03649 5.451C3.75841 6.34691 2.74914 7.57471 2.11749 9.002C3.47191 12.1269 6.59636 14.1087 10.0005 14.002C11.0503 14.0106 12.094 13.8415 13.0875 13.502L11.2875 11.702C10.8868 11.8984 10.4467 12.001 10.0005 12.002C8.34795 11.9916 7.01086 10.6545 7.00049 9.002C7.00097 8.55477 7.10358 8.11355 7.30049 7.712L5.03649 5.451ZM17.8525 12.612L16.4605 11.221C17.0461 10.5589 17.5261 9.81044 17.8835 9.002C16.5308 5.87558 13.4052 3.89308 10.0005 4.002C9.75349 4.002 9.50549 4.011 9.26549 4.028L7.50049 2.261C8.32212 2.08523 9.16028 1.9984 10.0005 2.002C11.6406 1.98165 13.2638 2.33562 14.7465 3.037C15.8958 3.59773 16.9279 4.37219 17.7875 5.319C18.6996 6.29596 19.4167 7.43807 19.9005 8.684L20.0005 9.002L19.8955 9.318C19.4273 10.5361 18.7346 11.6555 17.8535 12.618L17.8525 12.612Z" fill="#4F4F4F"/>
</svg>
