<svg width="24" height="24" viewBox="0 0 24 24" fill="none" xmlns="http://www.w3.org/2000/svg">
<path d="M19.9705 21.385L16.6145 18.029C15.1666 18.6882 13.5913 19.0204 12.0005 19.002C10.3604 19.0224 8.7372 18.6684 7.25449 17.967C6.10517 17.4062 5.07313 16.6318 4.21349 15.685C3.30098 14.7069 2.58379 13.5633 2.10049 12.316L2.00049 12.002L2.10549 11.686C2.8283 9.84229 4.04474 8.23316 5.62149 7.035L3.00049 4.414L4.41349 3.002L21.3825 19.971L19.9725 21.385H19.9705ZM7.03649 8.451C5.75841 9.34691 4.74914 10.5747 4.11749 12.002C5.47191 15.1269 8.59636 17.1087 12.0005 17.002C13.0503 17.0106 14.094 16.8415 15.0875 16.502L13.2875 14.702C12.8868 14.8984 12.4467 15.001 12.0005 15.002C10.3479 14.9916 9.01086 13.6545 9.00049 12.002C9.00097 11.5548 9.10358 11.1135 9.30049 10.712L7.03649 8.451ZM19.8525 15.612L18.4605 14.221C19.0461 13.5589 19.5261 12.8104 19.8835 12.002C18.5308 8.87558 15.4052 6.89308 12.0005 7.002C11.7535 7.002 11.5055 7.011 11.2655 7.028L9.50049 5.261C10.3221 5.08523 11.1603 4.9984 12.0005 5.002C13.6406 4.98165 15.2638 5.33562 16.7465 6.037C17.8958 6.59773 18.9279 7.37219 19.7875 8.319C20.6996 9.29596 21.4167 10.4381 21.9005 11.684L22.0005 12.002L21.8955 12.318C21.4273 13.5361 20.7346 14.6555 19.8535 15.618L19.8525 15.612Z" fill="#4F4F4F"/>
</svg>
