<svg id="Layer_1" data-name="Layer 1" xmlns="http://www.w3.org/2000/svg" viewBox="0 0 266.58 31.12"><defs><style>.cls-1{fill:#fff;}</style></defs><path class="cls-1" d="M0,30.64v-1H13.4a12.75,12.75,0,0,0,4.2-.6,5.62,5.62,0,0,0,2.8-2.12A11,11,0,0,0,22,22.6a39.08,39.08,0,0,0,.52-7,39.08,39.08,0,0,0-.52-7,10.17,10.17,0,0,0-1.6-4.28,5.56,5.56,0,0,0-2.8-2.16,12.75,12.75,0,0,0-4.2-.6H0v-1H14.64a12.51,12.51,0,0,1,5.61,1.16A14.34,14.34,0,0,1,24.76,5a15.35,15.35,0,0,1,3,4.84,15.17,15.17,0,0,1,1.08,5.68,14.57,14.57,0,0,1-1.12,5.68,15.35,15.35,0,0,1-3,4.84,14.31,14.31,0,0,1-4.47,3.4,13.21,13.21,0,0,1-5.6,1.2ZM4.4,30V.48H9.76V30Z" transform="translate(0 0)"/><path class="cls-1" d="M77.5,31.12A12.38,12.38,0,0,1,72,29.88a14.45,14.45,0,0,1-4.4-3.44,17.07,17.07,0,0,1-3-5,16.83,16.83,0,0,1-1-5.88A16.21,16.21,0,0,1,64.7,9.68a16.65,16.65,0,0,1,3-5,14.06,14.06,0,0,1,4.48-3.44A12.21,12.21,0,0,1,77.62,0a10.06,10.06,0,0,1,3.52.6,10.54,10.54,0,0,1,3.2,1.88l1.56-2h1v9h-1a15.43,15.43,0,0,0-1.4-4.12,7.72,7.72,0,0,0-2.64-3,8.24,8.24,0,0,0-7.4-.52A5.48,5.48,0,0,0,72.1,4a13.32,13.32,0,0,0-1.56,4.36A40.88,40.88,0,0,0,70,15.52a40.88,40.88,0,0,0,.52,7.16A13.7,13.7,0,0,0,72,27.08a5.82,5.82,0,0,0,2.36,2.2,8,8,0,0,0,3.12.6,8.76,8.76,0,0,0,4.52-1,7.42,7.42,0,0,0,2.76-2.8,14.18,14.18,0,0,0,1.47-3.92h1v8.48h-1L84.89,28.8a10.88,10.88,0,0,1-3.52,1.76A13.72,13.72,0,0,1,77.5,31.12Z" transform="translate(0 0)"/><path class="cls-1" d="M95,30V.48h5.36V30Zm-4.39.6v-1h14.15v1Zm0-29.16v-1h14.15v1Z" transform="translate(0 0)"/><path class="cls-1" d="M130.08,31.12,112.64,3.32h-.16V29.64h4.4v1H106.52v-1h4.4V1.48h-4.4v-1h10.84L129.6,19.92h.16V1.48h-4v-1h9.56v1h-4V31.12Z" transform="translate(0 0)"/><path class="cls-1" d="M147.89,31.12a10.22,10.22,0,0,1-3.72-.6,12.06,12.06,0,0,1-3-1.76l-1.44,1.88h-1v-8.4h1a14.44,14.44,0,0,0,1.52,3.68,8.47,8.47,0,0,0,2.68,2.84,7.73,7.73,0,0,0,4.32,1.12A7.57,7.57,0,0,0,152,29a5.76,5.76,0,0,0,3-5,4.39,4.39,0,0,0-.56-2.24,4.54,4.54,0,0,0-1.56-1.64,11.21,11.21,0,0,0-2.44-1.24,25.41,25.41,0,0,0-3.2-.92,14.11,14.11,0,0,1-4.72-1.92,8.06,8.06,0,0,1-2.68-3A9.32,9.32,0,0,1,139,8.92,8.71,8.71,0,0,1,140.25,4a8.05,8.05,0,0,1,3.36-3,9.75,9.75,0,0,1,4.44-1,9.16,9.16,0,0,1,3.32.56,11.09,11.09,0,0,1,2.88,1.68l1-1.76h1V8.64h-1A11.92,11.92,0,0,0,152.49,3a6.33,6.33,0,0,0-4.6-1.84,7.13,7.13,0,0,0-3.08.68,5.8,5.8,0,0,0-2.24,1.84,4.19,4.19,0,0,0-.84,2.6,3.93,3.93,0,0,0,.52,2.12,4.28,4.28,0,0,0,1.48,1.36,11,11,0,0,0,2.24,1q1.32.4,2.88.84a16.84,16.84,0,0,1,4.8,2,7.73,7.73,0,0,1,2.88,3.12,10,10,0,0,1,1,4.68A10,10,0,0,1,155,28.56Q152.52,31.11,147.89,31.12Z" transform="translate(0 0)"/><path class="cls-1" d="M165.25,30V.48h5.36V30Zm-4.4.6v-1H175v1Zm0-29.16v-1H175v1Z" transform="translate(0 0)"/><path class="cls-1" d="M191.53,31.12a12.1,12.1,0,0,1-5.6-1.28,13.21,13.21,0,0,1-4.24-3.44A17.57,17.57,0,0,1,179,21.48a17.73,17.73,0,0,1-.92-5.64,17.3,17.3,0,0,1,1-6,17,17,0,0,1,3-5.08,13.92,13.92,0,0,1,4.4-3.52A12.31,12.31,0,0,1,192.05,0a9.8,9.8,0,0,1,3.48.6,10.16,10.16,0,0,1,3.08,1.88l1.76-2h1v9h-1A15.43,15.43,0,0,0,199,5.36a7.72,7.72,0,0,0-2.64-3A8.14,8.14,0,0,0,189,1.84a6,6,0,0,0-2.4,2.28A13.64,13.64,0,0,0,185,8.64a43.64,43.64,0,0,0-.52,7.4,41.74,41.74,0,0,0,.48,6.88,13.18,13.18,0,0,0,1.36,4.2,5,5,0,0,0,2.16,2.12,7,7,0,0,0,2.92.6,6,6,0,0,0,4-1.24,4.42,4.42,0,0,0,1.52-3.6V19.32h6v1a10.38,10.38,0,0,1-1.6,5.84,10.51,10.51,0,0,1-4.16,3.72A12.39,12.39,0,0,1,191.53,31.12Zm.48-11.2v-1h13.24v1Z" transform="translate(0 0)"/><path class="cls-1" d="M207.1,30.64v-1h4.4V1.48h-4.4v-1h14.15v1h-4.4V14.64h11.52V1.48H224v-1h14.16v1h-4.4V29.64h4.4v1H224v-1h4.4v-14H216.86v14h4.39v1Z" transform="translate(0 0)"/><path class="cls-1" d="M245.82,30.64v-1H251V1.48h-3a4.73,4.73,0,0,0-3.2,1.36,8.18,8.18,0,0,0-2,3.2,12.76,12.76,0,0,0-.76,4.24h-1.4V.48h25.92v9.8h-1.4a13.24,13.24,0,0,0-.8-4.36,7.78,7.78,0,0,0-2.16-3.2,4.79,4.79,0,0,0-3.36-1.24h-2.4V29.64h5.2v1Z" transform="translate(0 0)"/><path class="cls-1" d="M61.56,15.64A15,15,0,1,1,60.42,9.9,15,15,0,0,1,61.56,15.64Zm-5.4-6.9A2.19,2.19,0,0,0,54,6.54H42.25a2.22,2.22,0,0,0-2.2,2.2v10H50.6a1.42,1.42,0,0,1,.83.45,1.38,1.38,0,0,1,.33.89v2.17a.91.91,0,0,1-.81.9h-.2a.89.89,0,0,1-.5-.15.85.85,0,0,1-.29-.43.77.77,0,0,1,0-.52,1,1,0,0,1,.28-.44.75.75,0,0,0,.24-.4.9.9,0,0,0,0-.46.75.75,0,0,0-.69-.46H39.35a2.29,2.29,0,0,0-1.56.65,2.21,2.21,0,0,0,0,3.13,2.18,2.18,0,0,0,1.53.63H51.27A2.49,2.49,0,0,0,52.63,24a2.4,2.4,0,0,0,.62-1.48V11a3.6,3.6,0,0,0,1.49-.22,2.15,2.15,0,0,0,1-.81A2.19,2.19,0,0,0,56.16,8.74Zm-5.1.88h-9v1.5h9Zm0,3h-9v1.5h9Zm0,3h-9v1.5h9Zm3.6-6.82a.72.72,0,0,1-.12.4.75.75,0,0,1-.33.25h0a2.12,2.12,0,0,1-.9.1V8.77a.63.63,0,0,1,.07-.3.82.82,0,0,1,.2-.25A.66.66,0,0,1,54,8.07a.71.71,0,0,1,.5.21.67.67,0,0,1,.15.47Z" transform="translate(0 0)"/></svg>